<?xml version="1.0" standalone="no"?>
<!DOCTYPE svg PUBLIC "-//W3C//DTD SVG 20010904//EN"
 "http://www.w3.org/TR/2001/REC-SVG-20010904/DTD/svg10.dtd">
<svg version="1.0" xmlns="http://www.w3.org/2000/svg"
 width="1280.000000pt" height="1280.000000pt" viewBox="0 0 1280.000000 1280.000000"
 preserveAspectRatio="xMidYMid meet">
<metadata>
</metadata>
<g transform="translate(0.000000,1280.000000) scale(0.100000,-0.100000)"
fill="#bb00bb" stroke="none">
<path d="M10642 11787 c-14 -6 -38 -40 -58 -79 -25 -50 -43 -73 -67 -84 -17
-9 -66 -57 -107 -106 -41 -49 -90 -106 -108 -126 -77 -84 -289 -336 -309 -367
-12 -19 -28 -37 -36 -42 -7 -4 -31 -30 -52 -57 -22 -27 -55 -65 -73 -85 -67
-72 -168 -191 -205 -242 -31 -42 -32 -60 -12 -195 9 -54 20 -135 26 -178 5
-44 12 -83 14 -86 2 -4 5 -34 6 -68 2 -51 -2 -66 -22 -91 -51 -63 -89 -118
-89 -128 0 -5 -13 -22 -30 -38 -16 -16 -30 -34 -30 -40 0 -6 -16 -30 -35 -52
-19 -23 -35 -45 -35 -50 0 -4 -12 -21 -27 -37 -16 -16 -39 -46 -53 -66 -60
-88 -134 -192 -235 -330 -109 -150 -120 -183 -75 -234 34 -39 71 -47 113 -25
45 23 183 118 197 133 7 10 40 33 73 52 33 19 78 50 101 69 23 18 55 41 72 51
18 11 58 39 90 64 33 25 71 51 85 59 15 7 50 33 79 56 29 24 72 53 96 66 24
12 44 25 44 29 0 7 67 54 106 75 12 6 38 24 58 40 21 17 50 40 66 53 15 12 32
22 37 22 5 0 40 25 78 55 38 30 71 55 74 55 17 0 60 50 71 82 17 47 6 87 -59
218 -26 52 -56 120 -66 150 -11 30 -27 67 -37 82 -10 14 -18 31 -18 37 0 6 -5
20 -12 31 -10 16 -8 27 10 65 12 25 22 50 22 55 0 5 14 39 30 75 17 36 30 71
30 78 0 7 11 29 25 49 14 20 25 45 25 55 0 10 13 43 28 73 16 30 35 73 42 95
7 22 23 58 36 81 13 22 24 47 24 55 0 8 13 41 30 74 16 33 30 67 30 75 0 8 11
33 25 55 13 22 25 49 25 60 0 11 8 34 19 51 10 17 22 41 26 55 4 13 20 52 36
87 39 84 38 134 0 173 -31 30 -60 35 -99 16z m-312 -671 c0 -8 -4 -18 -10 -21
-5 -3 -10 -17 -10 -30 0 -13 -4 -26 -9 -30 -5 -3 -26 -48 -46 -100 -21 -52
-41 -98 -46 -101 -5 -3 -9 -13 -9 -23 0 -9 -13 -44 -30 -76 -16 -32 -30 -64
-30 -70 0 -6 -12 -36 -26 -66 -15 -30 -29 -70 -31 -90 -6 -42 19 -135 52 -199
31 -58 80 -168 90 -200 4 -14 17 -42 28 -62 20 -36 20 -38 2 -58 -10 -11 -41
-34 -69 -52 -28 -17 -79 -53 -113 -80 -35 -26 -65 -48 -69 -48 -3 0 -38 -24
-78 -53 -39 -30 -81 -59 -94 -66 -12 -6 -47 -32 -77 -57 -31 -24 -71 -53 -90
-64 -20 -11 -58 -38 -86 -60 -79 -62 -92 -53 -31 22 20 25 45 59 55 74 9 16
34 52 55 81 20 28 72 100 115 160 l79 108 -6 85 c-3 47 -10 114 -16 150 -5 36
-14 99 -20 140 -5 41 -12 95 -15 120 -6 41 -3 49 32 92 66 81 126 152 201 239
40 46 88 102 106 124 19 22 60 69 91 105 31 36 64 77 73 93 18 30 32 35 32 13z"/>
<path d="M7873 10197 c-17 -6 -57 -35 -87 -64 -31 -28 -65 -54 -76 -58 -11 -3
-20 -10 -20 -14 0 -4 -25 -28 -56 -52 -31 -24 -87 -69 -125 -99 -38 -30 -100
-80 -139 -110 -39 -30 -92 -73 -118 -96 -26 -22 -63 -51 -82 -64 -19 -13 -58
-44 -86 -69 -28 -25 -85 -73 -128 -106 -43 -33 -108 -85 -145 -115 -36 -30
-74 -59 -82 -65 -22 -14 -133 -104 -192 -157 -26 -23 -55 -47 -65 -52 -9 -5
-47 -36 -85 -68 -37 -32 -71 -58 -75 -58 -4 0 -19 -11 -33 -24 -14 -13 -49
-41 -76 -63 -28 -21 -75 -59 -105 -85 -30 -27 -59 -48 -65 -48 -5 0 -25 -16
-44 -36 -18 -20 -54 -50 -79 -67 -25 -16 -63 -48 -85 -69 -22 -22 -53 -47 -70
-55 -16 -9 -48 -33 -70 -54 -22 -21 -57 -51 -77 -66 -137 -104 -259 -202 -327
-260 -24 -21 -62 -51 -86 -68 -45 -31 -140 -108 -211 -170 -23 -19 -59 -48
-81 -64 -21 -15 -56 -44 -78 -64 -22 -20 -43 -37 -47 -37 -4 0 -33 -22 -63
-50 -30 -27 -72 -60 -92 -74 -21 -13 -47 -34 -58 -46 -11 -12 -40 -36 -65 -53
-25 -17 -65 -49 -90 -71 -25 -23 -66 -56 -90 -73 -25 -18 -71 -54 -103 -79
l-57 -46 -29 31 c-50 54 -49 54 -296 22 -92 -12 -278 -37 -380 -52 -38 -5
-100 -14 -137 -19 -38 -6 -98 -14 -135 -20 -38 -5 -102 -14 -143 -20 -164 -22
-605 -85 -703 -100 -106 -16 -199 -29 -242 -35 -22 -2 -70 -9 -108 -15 -37 -5
-97 -14 -135 -19 -37 -5 -121 -17 -187 -26 -110 -15 -163 -22 -345 -44 -83
-11 -137 -26 -176 -50 l-31 -19 -8 -146 -7 -147 -61 -52 c-82 -71 -226 -198
-253 -222 -12 -11 -52 -47 -89 -80 -38 -33 -94 -82 -125 -110 -31 -27 -68 -59
-83 -70 -40 -31 -86 -101 -88 -132 -2 -33 20 -198 56 -413 8 -52 20 -126 25
-165 6 -38 15 -99 21 -135 5 -36 14 -96 20 -135 6 -38 14 -97 19 -130 5 -33
14 -91 19 -130 21 -151 32 -207 41 -225 14 -27 98 -84 152 -104 26 -10 63 -28
83 -42 20 -13 47 -24 60 -24 13 0 26 -4 30 -9 8 -14 95 -61 112 -61 8 0 27 -8
41 -18 29 -20 95 -52 108 -52 4 0 28 -12 53 -27 25 -15 66 -34 90 -43 52 -17
50 -15 126 -252 25 -80 53 -152 61 -159 8 -6 45 -12 82 -13 59 -1 67 -3 70
-21 2 -11 25 -65 52 -120 27 -56 56 -123 65 -150 15 -47 44 -114 85 -195 9
-19 23 -53 30 -75 7 -22 34 -85 60 -140 26 -55 55 -124 65 -153 9 -30 39 -97
65 -150 26 -54 50 -110 54 -127 4 -16 20 -57 36 -90 15 -33 46 -99 69 -148 22
-48 41 -93 41 -99 0 -6 23 -59 51 -117 28 -58 60 -133 71 -166 11 -33 41 -105
68 -160 26 -55 53 -118 60 -139 7 -22 25 -64 40 -95 46 -92 68 -145 76 -176 4
-17 29 -75 56 -129 28 -55 58 -125 68 -155 16 -50 43 -111 95 -209 40 -78 86
-82 405 -42 36 5 110 13 165 19 55 6 132 16 170 21 39 5 106 13 150 19 272 35
390 50 540 71 44 6 103 13 130 17 64 8 91 26 115 76 25 51 25 49 -9 121 -15
34 -32 71 -36 84 -4 13 -33 76 -66 140 -32 63 -59 122 -59 129 0 8 -21 55 -46
106 -26 51 -50 101 -54 112 -4 11 -39 85 -78 165 -40 80 -72 149 -72 155 0 5
-22 54 -49 110 -27 55 -62 132 -77 170 -15 39 -34 81 -43 95 -9 14 -27 50 -40
80 -13 30 -47 105 -76 165 -29 61 -59 128 -66 150 -8 22 -22 56 -33 75 -58
108 -87 172 -83 184 3 7 38 18 84 25 161 25 213 49 259 122 42 67 35 92 -95
344 -17 33 -31 68 -31 77 0 9 -5 20 -10 23 -12 8 -80 112 -80 123 0 5 -14 30
-31 56 -48 76 -49 75 176 96 66 6 149 15 185 20 36 5 112 14 170 20 139 14
188 26 227 56 26 20 33 32 33 59 0 19 4 36 8 39 5 3 46 -8 93 -24 46 -17 99
-30 116 -30 18 0 56 -9 85 -20 29 -11 85 -27 123 -35 39 -8 97 -23 129 -35 33
-11 76 -20 96 -20 20 0 40 -4 46 -8 5 -5 29 -14 54 -21 25 -7 53 -17 62 -22
10 -5 31 -9 48 -9 17 0 56 -9 88 -21 31 -11 89 -26 128 -34 40 -8 96 -23 125
-35 30 -11 67 -20 83 -20 16 0 55 -8 85 -19 31 -10 74 -23 96 -29 22 -5 74
-20 115 -32 41 -12 104 -27 140 -35 36 -7 92 -22 125 -34 33 -11 71 -21 85
-21 14 0 66 -13 116 -29 49 -16 107 -32 129 -36 22 -4 65 -15 95 -25 30 -10
75 -22 100 -26 25 -3 81 -19 125 -35 44 -16 93 -29 108 -29 16 0 62 -11 104
-25 42 -14 96 -29 122 -32 25 -4 73 -17 105 -30 33 -13 71 -23 85 -23 25 0 83
-16 113 -31 10 -5 29 -9 42 -9 14 0 28 -4 31 -10 3 -5 23 -10 43 -10 20 0 67
-11 104 -24 37 -14 89 -28 115 -31 26 -4 62 -13 78 -20 54 -22 101 -35 125
-35 21 0 60 -10 115 -30 56 -20 94 -30 117 -30 14 0 56 -11 94 -25 123 -45
177 -30 218 60 13 30 28 76 31 102 4 27 15 80 25 118 22 79 41 170 70 328 11
60 22 113 25 117 3 5 12 50 20 102 8 51 22 118 31 148 9 30 20 89 25 130 4 41
13 98 19 125 7 28 15 84 19 125 5 41 13 102 19 135 6 33 14 91 17 129 3 38 12
110 20 159 8 49 13 93 10 97 -2 4 0 51 6 106 30 305 44 866 27 1109 -20 289
-84 881 -117 1075 -17 98 -72 363 -88 420 -8 30 -19 75 -24 100 -5 25 -14 65
-19 90 -6 25 -15 63 -19 85 -9 41 -61 207 -104 330 -13 39 -30 97 -37 130 -12
53 -58 185 -95 270 -7 17 -28 73 -45 125 -18 52 -40 111 -50 130 -52 104 -60
123 -60 140 0 11 -4 22 -10 25 -5 3 -10 13 -10 22 0 9 -24 66 -54 127 -30 61
-60 129 -67 151 -7 22 -17 46 -22 52 -5 7 -25 45 -43 85 -19 40 -39 81 -44 90
-6 10 -10 24 -10 32 0 8 -17 45 -39 83 -21 37 -48 91 -60 118 -93 215 -153
275 -238 242z m-122 -383 c-5 -17 -12 -60 -15 -95 -4 -35 -11 -82 -16 -104 -9
-37 -18 -99 -55 -408 -8 -64 -19 -145 -25 -180 -5 -34 -10 -84 -10 -112 0 -27
-7 -88 -15 -135 -27 -157 -44 -963 -26 -1220 35 -496 43 -601 51 -660 6 -36
19 -141 30 -235 21 -173 28 -220 61 -405 34 -189 108 -507 140 -600 4 -14 20
-77 34 -140 15 -63 35 -143 46 -177 10 -34 19 -71 19 -82 0 -11 4 -22 9 -25 5
-3 11 -16 14 -28 2 -13 23 -86 45 -163 22 -77 50 -183 62 -235 23 -102 23
-102 74 -260 40 -127 70 -228 86 -295 6 -27 23 -84 36 -125 54 -172 86 -266
94 -285 9 -20 24 -70 60 -205 33 -120 43 -154 51 -165 4 -5 10 -27 14 -47 l7
-36 -44 5 c-23 3 -74 16 -111 29 -38 13 -80 24 -95 24 -15 0 -65 14 -112 30
-46 17 -99 30 -117 30 -18 0 -41 4 -51 9 -38 19 -120 44 -169 51 -28 5 -77 17
-110 28 -32 11 -78 24 -103 27 -25 4 -75 18 -111 31 -37 13 -79 24 -94 24 -16
0 -65 13 -109 29 -45 16 -101 32 -126 35 -25 4 -70 15 -100 26 -30 10 -75 21
-100 25 -25 4 -77 18 -116 31 -39 13 -80 24 -92 24 -12 0 -62 13 -110 29 -49
17 -112 33 -141 37 -28 4 -54 11 -57 15 -3 5 -16 9 -29 9 -13 0 -26 4 -29 9
-3 5 -32 12 -63 16 -54 7 -147 34 -185 56 -10 5 -33 9 -51 9 -19 0 -58 8 -88
18 -30 11 -79 24 -109 31 -74 16 -127 31 -173 47 -20 8 -51 14 -67 14 -16 0
-42 5 -57 11 -83 34 -135 49 -166 49 -14 0 -56 11 -94 25 -37 13 -88 27 -113
31 -25 3 -77 17 -116 30 -39 13 -83 24 -99 24 -16 0 -56 9 -89 20 -108 36
-122 40 -144 40 -11 0 -52 11 -90 25 -38 14 -86 25 -106 25 l-36 0 0 110 c0
61 -4 152 -9 203 -6 51 -12 196 -15 322 -7 287 -30 497 -105 975 -12 74 -36
203 -62 330 -12 58 -25 125 -30 150 -4 25 -13 65 -19 90 -6 25 -15 63 -20 85
-7 34 -21 89 -70 270 -4 17 -11 37 -14 46 -6 14 46 66 96 95 11 5 38 28 61 50
23 22 62 54 87 71 25 17 61 47 79 67 19 20 39 36 44 36 11 0 98 70 115 93 7 9
19 17 25 17 7 0 42 26 79 58 37 31 102 84 144 117 42 33 104 83 138 110 33 28
77 62 96 76 19 15 45 36 57 48 12 12 39 32 59 46 21 14 58 44 83 66 43 38 74
62 266 214 42 33 104 83 137 110 33 28 74 59 92 71 17 12 50 40 72 63 23 22
45 41 48 41 7 0 68 46 112 85 13 11 57 47 99 80 41 33 110 88 151 123 42 34
79 62 82 62 4 0 28 20 53 43 25 24 61 53 80 64 19 12 52 40 74 62 22 22 45 41
51 41 6 0 35 22 65 49 51 46 103 88 225 180 28 22 72 56 97 78 26 21 81 65
122 98 42 33 102 83 135 110 32 28 82 68 110 90 29 22 64 50 79 62 14 13 29
23 33 23 5 0 27 19 50 41 24 23 59 52 78 64 19 12 42 30 49 39 20 24 32 6 22
-30z m219 1 c0 -9 18 -48 41 -88 22 -40 47 -92 55 -117 15 -46 35 -91 44 -100
5 -5 39 -73 79 -159 12 -25 21 -50 21 -57 0 -7 25 -62 55 -123 30 -61 55 -118
55 -126 0 -15 10 -42 46 -120 47 -104 81 -192 93 -240 7 -27 17 -59 21 -70 33
-81 91 -250 109 -315 7 -25 17 -59 22 -76 5 -17 9 -42 9 -57 0 -14 4 -28 9
-31 5 -3 11 -16 13 -28 3 -13 22 -79 43 -148 47 -156 73 -259 85 -330 5 -30
18 -102 29 -160 56 -302 112 -742 131 -1030 27 -413 13 -1072 -29 -1402 -6
-43 -11 -101 -12 -130 -1 -48 -7 -88 -38 -262 -6 -33 -11 -76 -11 -97 0 -21
-5 -50 -11 -65 -5 -16 -14 -64 -20 -109 -5 -44 -16 -109 -24 -145 -8 -36 -22
-105 -30 -155 -35 -202 -46 -260 -60 -304 -7 -25 -17 -67 -20 -93 -7 -56 -22
-70 -31 -31 -3 15 -17 60 -31 98 -13 39 -35 113 -49 165 -13 52 -31 115 -39
140 -97 294 -132 410 -142 475 -2 17 -8 39 -13 50 -4 11 -22 67 -40 125 -18
58 -43 139 -55 180 -13 41 -33 120 -45 175 -22 99 -63 245 -121 423 -45 137
-46 135 86 148 218 22 288 62 337 196 15 40 30 102 33 138 4 36 10 99 15 140
7 78 -3 339 -20 497 -12 109 -32 208 -88 423 -36 137 -35 133 -107 284 -70
145 -122 213 -192 250 -49 26 -58 28 -140 23 -100 -6 -175 -19 -217 -36 -22
-9 -31 -9 -36 0 -4 6 -8 153 -8 327 -2 424 21 916 48 1062 7 36 16 108 20 160
11 131 27 255 51 385 10 61 19 124 19 142 0 45 40 213 51 213 5 0 9 -7 9 -15z
m137 -2452 c41 -43 74 -94 92 -143 7 -19 21 -53 31 -75 9 -22 23 -58 30 -80 7
-22 17 -49 21 -60 20 -45 51 -154 60 -210 25 -142 30 -174 41 -255 21 -151 12
-525 -14 -618 -22 -75 -42 -90 -143 -106 -49 -7 -116 -11 -147 -9 l-56 5 -16
67 c-8 36 -22 102 -30 146 -9 44 -23 114 -31 155 -42 210 -78 433 -95 600 -10
101 -20 184 -40 347 -17 143 -20 188 -13 198 9 13 155 63 198 68 70 9 78 7
112 -30z m-4119 -265 c5 -7 13 -29 16 -48 4 -19 11 -54 16 -77 6 -24 15 -64
21 -90 5 -27 14 -64 19 -83 21 -77 73 -288 82 -330 5 -25 14 -63 20 -85 5 -22
13 -60 18 -85 5 -25 13 -65 19 -90 14 -59 37 -182 56 -300 8 -52 20 -120 25
-150 21 -124 50 -501 50 -660 1 -63 5 -146 10 -185 5 -38 10 -196 11 -350 1
-228 -1 -281 -12 -286 -8 -4 -68 -12 -134 -19 -166 -15 -206 -20 -234 -26 -14
-3 -61 -10 -105 -15 -45 -6 -115 -15 -156 -20 -41 -5 -111 -14 -155 -20 -44
-5 -113 -14 -152 -19 -116 -16 -211 -27 -318 -39 -55 -6 -131 -15 -170 -21
-38 -5 -119 -14 -180 -20 -60 -6 -139 -15 -175 -20 -36 -5 -117 -14 -180 -20
-63 -6 -149 -15 -190 -21 -41 -5 -133 -16 -205 -24 -71 -8 -174 -19 -227 -26
-54 -6 -104 -9 -112 -6 -7 3 -21 40 -31 84 -9 43 -21 89 -25 103 -5 14 -18 59
-30 100 -12 41 -32 111 -45 155 -52 179 -69 259 -140 645 -25 141 -51 323 -65
460 -19 186 -29 764 -19 1090 l4 135 55 7 c30 3 89 11 130 18 41 6 107 15 145
21 39 5 99 13 135 19 36 5 97 14 135 19 93 12 482 68 568 81 37 5 100 15 140
20 39 6 97 15 128 20 30 6 69 10 87 10 17 0 51 4 74 10 24 5 79 14 123 20 44
5 130 17 190 25 61 8 148 19 195 25 87 11 170 23 288 40 89 13 264 38 278 39
6 1 16 -5 22 -11z m-2869 -1508 c16 -269 40 -466 80 -655 19 -93 45 -199 102
-427 18 -73 22 -98 14 -98 -3 0 -31 11 -61 25 -30 14 -58 25 -62 25 -4 0 -23
10 -42 23 -19 13 -56 31 -82 41 -26 9 -63 28 -83 42 -20 13 -46 24 -58 24 -13
0 -28 5 -35 12 -6 6 -35 23 -64 38 l-53 27 -12 79 c-6 43 -28 189 -48 324 -20
135 -41 272 -45 305 -8 58 -21 147 -40 270 -4 33 -14 98 -20 145 l-12 84 69
63 c78 72 146 133 253 227 41 36 98 87 125 112 l50 46 6 -263 c3 -145 12 -356
18 -469z m2421 -1642 c28 -57 62 -112 83 -136 9 -10 17 -24 17 -30 0 -13 46
-100 65 -122 7 -8 25 -42 40 -75 14 -33 35 -78 45 -100 31 -66 30 -78 -11 -91
-19 -7 -76 -15 -126 -19 -90 -7 -91 -7 -98 16 -10 36 -19 56 -67 154 -25 50
-51 107 -57 127 -7 20 -37 84 -67 143 -29 58 -54 114 -54 124 0 16 13 21 88
31 48 6 92 13 97 15 21 7 25 4 45 -37z m-409 -73 c15 -28 28 -58 28 -68 1 -11
26 -66 56 -123 30 -58 55 -111 55 -118 0 -7 30 -73 66 -147 36 -74 69 -143 73
-154 4 -11 33 -72 64 -135 31 -63 62 -133 69 -155 7 -22 15 -44 19 -50 22 -33
77 -147 89 -185 8 -25 23 -61 33 -80 44 -79 85 -167 97 -205 7 -22 16 -44 20
-50 22 -28 75 -137 90 -185 10 -30 34 -85 53 -121 20 -36 48 -96 63 -135 16
-38 42 -94 59 -124 16 -30 41 -82 54 -115 21 -55 62 -142 89 -190 6 -11 20
-46 32 -78 11 -32 38 -92 60 -133 23 -41 38 -79 35 -83 -6 -11 -43 -17 -170
-31 -49 -6 -124 -15 -165 -20 -41 -6 -111 -15 -155 -20 -147 -17 -249 -29
-330 -39 -490 -61 -485 -61 -496 -41 -29 54 -100 212 -110 245 -6 22 -31 79
-55 127 -24 49 -53 116 -65 150 -12 35 -41 104 -65 154 -24 50 -55 122 -69
160 -14 38 -41 101 -60 139 -19 39 -46 104 -61 145 -15 41 -41 102 -59 135
-18 34 -42 90 -54 124 -12 34 -42 105 -66 157 -24 51 -48 106 -51 121 -4 16
-31 78 -60 138 -29 61 -58 128 -64 150 -7 22 -41 100 -76 173 -35 72 -64 136
-64 142 0 11 -18 53 -70 165 -21 44 -40 89 -43 100 -12 44 -39 109 -52 129 -8
11 -15 25 -15 31 0 11 83 25 270 45 52 6 131 15 175 20 44 5 143 17 220 25 77
9 169 20 205 25 36 5 124 15 195 21 72 6 135 13 140 14 25 9 41 -4 66 -50z"/>
<path d="M10455 7379 c-98 -53 -151 -78 -162 -79 -6 0 -51 -23 -100 -51 -48
-28 -108 -59 -133 -69 -25 -10 -94 -45 -155 -79 -60 -34 -115 -61 -121 -61 -6
0 -53 -24 -105 -52 -52 -29 -121 -64 -154 -78 -101 -43 -133 -116 -74 -171 27
-26 39 -29 93 -29 33 0 77 4 96 10 19 5 67 14 105 20 93 14 218 36 340 60 135
26 169 28 190 15 30 -19 224 -187 270 -234 22 -23 44 -41 49 -41 8 0 52 -39
124 -112 21 -21 42 -38 47 -38 5 0 26 -17 46 -37 69 -70 104 -93 144 -93 38 0
73 14 90 37 6 7 40 34 76 61 194 138 229 164 229 170 0 4 21 20 48 37 26 16
72 50 102 75 30 25 73 58 95 73 22 15 55 40 74 56 19 16 45 35 58 42 13 7 44
32 69 55 26 23 58 48 73 55 14 7 54 37 88 66 33 29 64 53 68 53 4 0 34 22 67
50 33 27 71 57 86 66 30 17 82 85 82 106 0 29 -38 74 -73 85 -34 10 -96 -3
-172 -37 -11 -4 -31 -11 -45 -14 -14 -2 -42 -9 -62 -15 -21 -6 -53 -15 -70
-20 -31 -9 -75 -24 -123 -41 -137 -52 -215 -77 -365 -120 -41 -12 -84 -25 -95
-30 -11 -4 -38 -13 -60 -20 -22 -6 -75 -26 -118 -42 l-78 -31 -122 119 c-67
65 -127 127 -132 137 -6 9 -27 28 -47 42 -20 14 -39 33 -42 42 -7 23 -107 83
-138 83 -13 0 -42 -10 -63 -21z m261 -386 l199 -198 70 2 c51 1 93 10 155 32
294 108 449 156 463 142 5 -5 -21 -31 -57 -58 -37 -26 -90 -68 -119 -91 -29
-24 -75 -59 -103 -78 -28 -19 -65 -47 -82 -64 -18 -16 -35 -30 -40 -30 -4 0
-43 -29 -87 -65 -44 -36 -85 -65 -91 -65 -6 0 -19 -9 -29 -20 -29 -33 -40 -29
-124 47 -341 304 -529 462 -556 469 -15 4 -43 4 -63 1 -117 -18 -119 -18 -92
-5 14 7 27 15 30 18 9 9 104 60 170 91 36 16 81 38 100 49 19 10 40 19 46 19
6 1 100 -88 210 -196z"/>
<path d="M9830 4052 c-74 -4 -85 -9 -109 -52 -22 -40 -23 -43 -7 -83 16 -42
74 -87 111 -87 8 0 23 -4 33 -9 9 -5 42 -14 72 -21 30 -6 73 -20 95 -30 23
-10 60 -23 84 -30 24 -6 67 -23 95 -37 28 -14 59 -30 68 -34 10 -5 24 -9 31
-9 7 0 28 -13 47 -30 19 -16 40 -29 47 -30 23 0 60 -65 72 -124 15 -80 14
-138 -5 -221 -8 -39 -19 -95 -23 -125 -5 -30 -18 -81 -30 -112 -34 -93 -26
-125 38 -158 32 -16 74 -21 231 -30 106 -5 196 -12 200 -15 4 -3 68 -8 142
-11 73 -3 174 -10 223 -16 50 -5 167 -14 260 -19 447 -24 524 -29 581 -35 59
-6 61 -5 97 29 65 61 47 114 -55 163 -165 81 -214 104 -222 104 -6 0 -42 16
-80 35 -39 19 -102 48 -141 65 -38 18 -97 45 -130 60 -33 16 -71 32 -84 36
-13 3 -46 19 -73 35 -27 16 -59 29 -72 29 -13 0 -28 6 -34 13 -6 7 -35 24 -64
36 -66 28 -178 85 -178 90 0 2 6 29 14 60 8 31 17 83 21 116 4 33 11 71 16 85
5 14 16 68 25 120 29 177 30 164 -8 205 l-34 37 -604 2 c-333 0 -625 0 -650
-2z m1108 -212 c2 -10 -4 -40 -13 -67 -9 -26 -20 -82 -25 -123 -5 -41 -13 -87
-19 -103 -36 -94 -33 -204 8 -250 16 -19 109 -67 130 -67 6 0 28 -11 49 -24
20 -13 55 -30 77 -36 22 -7 52 -21 67 -32 15 -10 42 -24 60 -29 46 -15 117
-49 123 -59 3 -4 17 -11 32 -15 41 -9 133 -56 133 -66 0 -12 -96 -11 -190 2
-80 11 -347 27 -575 35 -77 2 -150 7 -162 9 -27 6 -29 31 -7 94 38 111 48 382
16 461 -25 61 -53 110 -77 132 -51 47 -103 88 -113 88 -19 0 -101 55 -102 68
0 9 62 11 293 7 277 -5 292 -7 295 -25z"/>
</g>
</svg>
